<?xml version="1.0" encoding="utf-8" standalone="no"?>
<!DOCTYPE svg PUBLIC "-//W3C//DTD SVG 1.1//EN"
  "http://www.w3.org/Graphics/SVG/1.1/DTD/svg11.dtd">
<svg xmlns:xlink="http://www.w3.org/1999/xlink" width="679.68pt" height="568.8pt" viewBox="0 0 679.68 568.8" xmlns="http://www.w3.org/2000/svg" version="1.1">
 <metadata>
  <rdf:RDF xmlns:dc="http://purl.org/dc/elements/1.1/" xmlns:cc="http://creativecommons.org/ns#" xmlns:rdf="http://www.w3.org/1999/02/22-rdf-syntax-ns#">
   <cc:Work>
    <dc:type rdf:resource="http://purl.org/dc/dcmitype/StillImage"/>
    <dc:date>2026-02-07T21:49:54.027905</dc:date>
    <dc:format>image/svg+xml</dc:format>
    <dc:creator>
     <cc:Agent>
      <dc:title>Matplotlib v3.10.8, https://matplotlib.org/</dc:title>
     </cc:Agent>
    </dc:creator>
   </cc:Work>
  </rdf:RDF>
 </metadata>
 <defs>
  <style type="text/css">*{stroke-linejoin: round; stroke-linecap: butt}</style>
 </defs>
 <g id="figure_1">
  <g id="patch_1">
   <path d="M 0 568.8 
L 679.68 568.8 
L 679.68 0 
L 0 0 
z
" style="fill: #ffffff"/>
  </g>
  <g id="axes_1">
   <g id="patch_2">
    <path d="M 43.236 204.012 
L 181.836 204.012 
Q 192.924 204.012 192.924 192.924 
L 192.924 126.396 
Q 192.924 115.308 181.836 115.308 
L 43.236 115.308 
Q 32.148 115.308 32.148 126.396 
L 32.148 192.924 
Q 32.148 204.012 43.236 204.012 
z
" clip-path="url(#p83104dd015)" style="fill: #f8f9fa; stroke: #2c3e50; stroke-width: 2; stroke-linejoin: miter"/>
   </g>
   <g id="patch_3">
    <path d="M 43.236 481.212 
L 181.836 481.212 
Q 192.924 481.212 192.924 470.124 
L 192.924 403.596 
Q 192.924 392.508 181.836 392.508 
L 43.236 392.508 
Q 32.148 392.508 32.148 403.596 
L 32.148 470.124 
Q 32.148 481.212 43.236 481.212 
z
" clip-path="url(#p83104dd015)" style="fill: #f8f9fa; stroke: #2c3e50; stroke-width: 2; stroke-linejoin: miter"/>
   </g>
   <g id="patch_4">
    <path d="M 486.756 342.612 
L 625.356 342.612 
Q 636.444 342.612 636.444 331.524 
L 636.444 264.996 
Q 636.444 253.908 625.356 253.908 
L 486.756 253.908 
Q 475.668 253.908 475.668 264.996 
L 475.668 331.524 
Q 475.668 342.612 486.756 342.612 
z
" clip-path="url(#p83104dd015)" style="fill: #f8f9fa; stroke: #2c3e50; stroke-width: 2; stroke-linejoin: miter"/>
   </g>
   <g id="patch_5">
    <path d="M 184.608 112.536 
L 495.072 112.536 
Q 511.704 112.536 511.704 95.904 
L 511.704 46.008 
Q 511.704 29.376 495.072 29.376 
L 184.608 29.376 
Q 167.976 29.376 167.976 46.008 
L 167.976 95.904 
Q 167.976 112.536 184.608 112.536 
z
" clip-path="url(#p83104dd015)" style="fill: #fff9e6; stroke: #f39c12; stroke-width: 2; stroke-linejoin: miter"/>
   </g>
   <g id="patch_6">
    <path d="M 175.111988 160.868732 
Q 248.363427 216.485565 318.943503 270.074141 
" style="fill: none; stroke: #e74c3c; stroke-width: 3; stroke-linecap: round"/>
    <path d="M 316.967136 266.062412 
L 318.943503 270.074141 
L 314.548299 269.248197 
" style="fill: none; stroke: #e74c3c; stroke-width: 3; stroke-linecap: round"/>
   </g>
   <g id="patch_7">
    <path d="M 174.98793 435.498829 
Q 249.750155 366.173856 322.052924 299.129471 
" style="fill: none; stroke: #3498db; stroke-width: 3; stroke-linecap: round"/>
    <path d="M 317.759972 300.382693 
L 322.052924 299.129471 
L 320.47973 303.315765 
" style="fill: none; stroke: #3498db; stroke-width: 3; stroke-linecap: round"/>
   </g>
   <g id="patch_8">
    <path d="M 361.233753 284.631367 
Q 418.8443 291.330267 473.123194 297.641767 
" style="fill: none; stroke: #27ae60; stroke-width: 3; stroke-linecap: round"/>
    <path d="M 469.380966 295.193148 
L 473.123194 297.641767 
L 468.918962 299.166378 
" style="fill: none; stroke: #27ae60; stroke-width: 3; stroke-linecap: round"/>
   </g>
   <g id="line2d_1">
    <defs>
     <path id="m377b37d22e" d="M 0 9 
C 2.386828 9 4.676219 8.051703 6.363961 6.363961 
C 8.051703 4.676219 9 2.386828 9 0 
C 9 -2.386828 8.051703 -4.676219 6.363961 -6.363961 
C 4.676219 -8.051703 2.386828 -9 0 -9 
C -2.386828 -9 -4.676219 -8.051703 -6.363961 -6.363961 
C -8.051703 -4.676219 -9 -2.386828 -9 0 
C -9 2.386828 -8.051703 4.676219 -6.363961 6.363961 
C -4.676219 8.051703 -2.386828 9 0 9 
z
" style="stroke: #000000"/>
    </defs>
    <g clip-path="url(#p83104dd015)">
     <use xlink:href="#m377b37d22e" x="339.84" y="284.4" style="stroke: #000000"/>
    </g>
   </g>
   <g id="text_1">
    <!-- Component A -->
    <g style="fill: #2c3e50" transform="translate(70.913031 156.536516) scale(0.11 -0.11)">
     <defs>
      <path id="DejaVuSans-Bold-43" d="M 4288 256 
Q 3956 84 3597 -3 
Q 3238 -91 2847 -91 
Q 1681 -91 1000 561 
Q 319 1213 319 2328 
Q 319 3447 1000 4098 
Q 1681 4750 2847 4750 
Q 3238 4750 3597 4662 
Q 3956 4575 4288 4403 
L 4288 3438 
Q 3953 3666 3628 3772 
Q 3303 3878 2944 3878 
Q 2300 3878 1931 3465 
Q 1563 3053 1563 2328 
Q 1563 1606 1931 1193 
Q 2300 781 2944 781 
Q 3303 781 3628 887 
Q 3953 994 4288 1222 
L 4288 256 
z
" transform="scale(0.015625)"/>
      <path id="DejaVuSans-Bold-6f" d="M 2203 2784 
Q 1831 2784 1636 2517 
Q 1441 2250 1441 1747 
Q 1441 1244 1636 976 
Q 1831 709 2203 709 
Q 2569 709 2762 976 
Q 2956 1244 2956 1747 
Q 2956 2250 2762 2517 
Q 2569 2784 2203 2784 
z
M 2203 3584 
Q 3106 3584 3614 3096 
Q 4122 2609 4122 1747 
Q 4122 884 3614 396 
Q 3106 -91 2203 -91 
Q 1297 -91 786 396 
Q 275 884 275 1747 
Q 275 2609 786 3096 
Q 1297 3584 2203 3584 
z
" transform="scale(0.015625)"/>
      <path id="DejaVuSans-Bold-6d" d="M 3781 2919 
Q 3994 3244 4286 3414 
Q 4578 3584 4928 3584 
Q 5531 3584 5847 3212 
Q 6163 2841 6163 2131 
L 6163 0 
L 5038 0 
L 5038 1825 
Q 5041 1866 5042 1909 
Q 5044 1953 5044 2034 
Q 5044 2406 4934 2573 
Q 4825 2741 4581 2741 
Q 4263 2741 4089 2478 
Q 3916 2216 3909 1719 
L 3909 0 
L 2784 0 
L 2784 1825 
Q 2784 2406 2684 2573 
Q 2584 2741 2328 2741 
Q 2006 2741 1831 2477 
Q 1656 2213 1656 1722 
L 1656 0 
L 531 0 
L 531 3500 
L 1656 3500 
L 1656 2988 
Q 1863 3284 2130 3434 
Q 2397 3584 2719 3584 
Q 3081 3584 3359 3409 
Q 3638 3234 3781 2919 
z
" transform="scale(0.015625)"/>
      <path id="DejaVuSans-Bold-70" d="M 1656 506 
L 1656 -1331 
L 538 -1331 
L 538 3500 
L 1656 3500 
L 1656 2988 
Q 1888 3294 2169 3439 
Q 2450 3584 2816 3584 
Q 3463 3584 3878 3070 
Q 4294 2556 4294 1747 
Q 4294 938 3878 423 
Q 3463 -91 2816 -91 
Q 2450 -91 2169 54 
Q 1888 200 1656 506 
z
M 2400 2772 
Q 2041 2772 1848 2508 
Q 1656 2244 1656 1747 
Q 1656 1250 1848 986 
Q 2041 722 2400 722 
Q 2759 722 2948 984 
Q 3138 1247 3138 1747 
Q 3138 2247 2948 2509 
Q 2759 2772 2400 2772 
z
" transform="scale(0.015625)"/>
      <path id="DejaVuSans-Bold-6e" d="M 4056 2131 
L 4056 0 
L 2931 0 
L 2931 347 
L 2931 1631 
Q 2931 2084 2911 2256 
Q 2891 2428 2841 2509 
Q 2775 2619 2662 2680 
Q 2550 2741 2406 2741 
Q 2056 2741 1856 2470 
Q 1656 2200 1656 1722 
L 1656 0 
L 538 0 
L 538 3500 
L 1656 3500 
L 1656 2988 
Q 1909 3294 2193 3439 
Q 2478 3584 2822 3584 
Q 3428 3584 3742 3212 
Q 4056 2841 4056 2131 
z
" transform="scale(0.015625)"/>
      <path id="DejaVuSans-Bold-65" d="M 4031 1759 
L 4031 1441 
L 1416 1441 
Q 1456 1047 1700 850 
Q 1944 653 2381 653 
Q 2734 653 3104 758 
Q 3475 863 3866 1075 
L 3866 213 
Q 3469 63 3072 -14 
Q 2675 -91 2278 -91 
Q 1328 -91 801 392 
Q 275 875 275 1747 
Q 275 2603 792 3093 
Q 1309 3584 2216 3584 
Q 3041 3584 3536 3087 
Q 4031 2591 4031 1759 
z
M 2881 2131 
Q 2881 2450 2695 2645 
Q 2509 2841 2209 2841 
Q 1884 2841 1681 2658 
Q 1478 2475 1428 2131 
L 2881 2131 
z
" transform="scale(0.015625)"/>
      <path id="DejaVuSans-Bold-74" d="M 1759 4494 
L 1759 3500 
L 2913 3500 
L 2913 2700 
L 1759 2700 
L 1759 1216 
Q 1759 972 1856 886 
Q 1953 800 2241 800 
L 2816 800 
L 2816 0 
L 1856 0 
Q 1194 0 917 276 
Q 641 553 641 1216 
L 641 2700 
L 84 2700 
L 84 3500 
L 641 3500 
L 641 4494 
L 1759 4494 
z
" transform="scale(0.015625)"/>
      <path id="DejaVuSans-Bold-20" transform="scale(0.015625)"/>
      <path id="DejaVuSans-Bold-41" d="M 3419 850 
L 1538 850 
L 1241 0 
L 31 0 
L 1759 4666 
L 3194 4666 
L 4922 0 
L 3713 0 
L 3419 850 
z
M 1838 1716 
L 3116 1716 
L 2478 3572 
L 1838 1716 
z
" transform="scale(0.015625)"/>
     </defs>
     <use xlink:href="#DejaVuSans-Bold-43"/>
     <use xlink:href="#DejaVuSans-Bold-6f" transform="translate(73.388672 0)"/>
     <use xlink:href="#DejaVuSans-Bold-6d" transform="translate(142.089844 0)"/>
     <use xlink:href="#DejaVuSans-Bold-70" transform="translate(246.289062 0)"/>
     <use xlink:href="#DejaVuSans-Bold-6f" transform="translate(317.871094 0)"/>
     <use xlink:href="#DejaVuSans-Bold-6e" transform="translate(386.572266 0)"/>
     <use xlink:href="#DejaVuSans-Bold-65" transform="translate(457.763672 0)"/>
     <use xlink:href="#DejaVuSans-Bold-6e" transform="translate(525.585938 0)"/>
     <use xlink:href="#DejaVuSans-Bold-74" transform="translate(596.777344 0)"/>
     <use xlink:href="#DejaVuSans-Bold-20" transform="translate(644.580078 0)"/>
     <use xlink:href="#DejaVuSans-Bold-41" transform="translate(679.394531 0)"/>
    </g>
    <!-- (Heat Source) -->
    <g style="fill: #2c3e50" transform="translate(69.562094 168.854109) scale(0.11 -0.11)">
     <defs>
      <path id="DejaVuSans-Bold-28" d="M 2413 -844 
L 1484 -844 
Q 1006 -72 778 623 
Q 550 1319 550 2003 
Q 550 2688 779 3389 
Q 1009 4091 1484 4856 
L 2413 4856 
Q 2013 4116 1813 3408 
Q 1613 2700 1613 2009 
Q 1613 1319 1811 609 
Q 2009 -100 2413 -844 
z
" transform="scale(0.015625)"/>
      <path id="DejaVuSans-Bold-48" d="M 588 4666 
L 1791 4666 
L 1791 2888 
L 3566 2888 
L 3566 4666 
L 4769 4666 
L 4769 0 
L 3566 0 
L 3566 1978 
L 1791 1978 
L 1791 0 
L 588 0 
L 588 4666 
z
" transform="scale(0.015625)"/>
      <path id="DejaVuSans-Bold-61" d="M 2106 1575 
Q 1756 1575 1579 1456 
Q 1403 1338 1403 1106 
Q 1403 894 1545 773 
Q 1688 653 1941 653 
Q 2256 653 2472 879 
Q 2688 1106 2688 1447 
L 2688 1575 
L 2106 1575 
z
M 3816 1997 
L 3816 0 
L 2688 0 
L 2688 519 
Q 2463 200 2181 54 
Q 1900 -91 1497 -91 
Q 953 -91 614 226 
Q 275 544 275 1050 
Q 275 1666 698 1953 
Q 1122 2241 2028 2241 
L 2688 2241 
L 2688 2328 
Q 2688 2594 2478 2717 
Q 2269 2841 1825 2841 
Q 1466 2841 1156 2769 
Q 847 2697 581 2553 
L 581 3406 
Q 941 3494 1303 3539 
Q 1666 3584 2028 3584 
Q 2975 3584 3395 3211 
Q 3816 2838 3816 1997 
z
" transform="scale(0.015625)"/>
      <path id="DejaVuSans-Bold-53" d="M 3834 4519 
L 3834 3531 
Q 3450 3703 3084 3790 
Q 2719 3878 2394 3878 
Q 1963 3878 1756 3759 
Q 1550 3641 1550 3391 
Q 1550 3203 1689 3098 
Q 1828 2994 2194 2919 
L 2706 2816 
Q 3484 2659 3812 2340 
Q 4141 2022 4141 1434 
Q 4141 663 3683 286 
Q 3225 -91 2284 -91 
Q 1841 -91 1394 -6 
Q 947 78 500 244 
L 500 1259 
Q 947 1022 1364 901 
Q 1781 781 2169 781 
Q 2563 781 2772 912 
Q 2981 1044 2981 1288 
Q 2981 1506 2839 1625 
Q 2697 1744 2272 1838 
L 1806 1941 
Q 1106 2091 782 2419 
Q 459 2747 459 3303 
Q 459 4000 909 4375 
Q 1359 4750 2203 4750 
Q 2588 4750 2994 4692 
Q 3400 4634 3834 4519 
z
" transform="scale(0.015625)"/>
      <path id="DejaVuSans-Bold-75" d="M 500 1363 
L 500 3500 
L 1625 3500 
L 1625 3150 
Q 1625 2866 1622 2436 
Q 1619 2006 1619 1863 
Q 1619 1441 1641 1255 
Q 1663 1069 1716 984 
Q 1784 875 1895 815 
Q 2006 756 2150 756 
Q 2500 756 2700 1025 
Q 2900 1294 2900 1772 
L 2900 3500 
L 4019 3500 
L 4019 0 
L 2900 0 
L 2900 506 
Q 2647 200 2364 54 
Q 2081 -91 1741 -91 
Q 1134 -91 817 281 
Q 500 653 500 1363 
z
" transform="scale(0.015625)"/>
      <path id="DejaVuSans-Bold-72" d="M 3138 2547 
Q 2991 2616 2845 2648 
Q 2700 2681 2553 2681 
Q 2122 2681 1889 2404 
Q 1656 2128 1656 1613 
L 1656 0 
L 538 0 
L 538 3500 
L 1656 3500 
L 1656 2925 
Q 1872 3269 2151 3426 
Q 2431 3584 2822 3584 
Q 2878 3584 2943 3579 
Q 3009 3575 3134 3559 
L 3138 2547 
z
" transform="scale(0.015625)"/>
      <path id="DejaVuSans-Bold-63" d="M 3366 3391 
L 3366 2478 
Q 3138 2634 2908 2709 
Q 2678 2784 2431 2784 
Q 1963 2784 1702 2511 
Q 1441 2238 1441 1747 
Q 1441 1256 1702 982 
Q 1963 709 2431 709 
Q 2694 709 2930 787 
Q 3166 866 3366 1019 
L 3366 103 
Q 3103 6 2833 -42 
Q 2563 -91 2291 -91 
Q 1344 -91 809 395 
Q 275 881 275 1747 
Q 275 2613 809 3098 
Q 1344 3584 2291 3584 
Q 2566 3584 2833 3536 
Q 3100 3488 3366 3391 
z
" transform="scale(0.015625)"/>
      <path id="DejaVuSans-Bold-29" d="M 513 -844 
Q 913 -100 1113 609 
Q 1313 1319 1313 2009 
Q 1313 2700 1113 3408 
Q 913 4116 513 4856 
L 1441 4856 
Q 1916 4091 2145 3389 
Q 2375 2688 2375 2003 
Q 2375 1319 2147 623 
Q 1919 -72 1441 -844 
L 513 -844 
z
" transform="scale(0.015625)"/>
     </defs>
     <use xlink:href="#DejaVuSans-Bold-28"/>
     <use xlink:href="#DejaVuSans-Bold-48" transform="translate(45.703125 0)"/>
     <use xlink:href="#DejaVuSans-Bold-65" transform="translate(129.394531 0)"/>
     <use xlink:href="#DejaVuSans-Bold-61" transform="translate(197.216797 0)"/>
     <use xlink:href="#DejaVuSans-Bold-74" transform="translate(264.697266 0)"/>
     <use xlink:href="#DejaVuSans-Bold-20" transform="translate(312.5 0)"/>
     <use xlink:href="#DejaVuSans-Bold-53" transform="translate(347.314453 0)"/>
     <use xlink:href="#DejaVuSans-Bold-6f" transform="translate(419.335938 0)"/>
     <use xlink:href="#DejaVuSans-Bold-75" transform="translate(488.037109 0)"/>
     <use xlink:href="#DejaVuSans-Bold-72" transform="translate(559.228516 0)"/>
     <use xlink:href="#DejaVuSans-Bold-63" transform="translate(608.544922 0)"/>
     <use xlink:href="#DejaVuSans-Bold-65" transform="translate(667.822266 0)"/>
     <use xlink:href="#DejaVuSans-Bold-29" transform="translate(735.644531 0)"/>
    </g>
   </g>
   <g id="text_2">
    <!-- Q_flow_a -->
    <g style="fill: #e74c3c" transform="translate(210.5655 198.840375) scale(0.12 -0.12)">
     <defs>
      <path id="DejaVuSans-BoldOblique-51" d="M 2375 -84 
Q 2341 -88 2306 -89 
Q 2272 -91 2194 -91 
Q 1841 -91 1528 6 
Q 1216 103 959 294 
Q 616 547 423 939 
Q 231 1331 231 1778 
Q 231 2350 404 2858 
Q 578 3366 909 3769 
Q 1313 4266 1864 4508 
Q 2416 4750 3144 4750 
Q 4075 4750 4642 4233 
Q 5209 3716 5209 2881 
Q 5209 1900 4732 1161 
Q 4256 422 3406 84 
L 4122 -934 
L 2975 -934 
L 2375 -84 
z
M 3938 2753 
Q 3938 3303 3689 3590 
Q 3441 3878 2969 3878 
Q 2344 3878 1920 3317 
Q 1497 2756 1497 1913 
Q 1497 1375 1744 1078 
Q 1991 781 2431 781 
Q 2791 781 3070 932 
Q 3350 1084 3547 1381 
Q 3734 1666 3836 2022 
Q 3938 2378 3938 2753 
z
" transform="scale(0.015625)"/>
      <path id="DejaVuSans-BoldOblique-5f" d="M 3263 -916 
L 3263 -1509 
L -63 -1509 
L -63 -916 
L 3263 -916 
z
" transform="scale(0.015625)"/>
      <path id="DejaVuSans-BoldOblique-66" d="M 3456 4863 
L 3309 4128 
L 2694 4128 
Q 2459 4128 2351 4042 
Q 2244 3956 2203 3747 
L 2150 3500 
L 3097 3500 
L 2944 2700 
L 1997 2700 
L 1472 0 
L 347 0 
L 872 2700 
L 319 2700 
L 475 3500 
L 1025 3500 
L 1075 3744 
Q 1191 4325 1556 4594 
Q 1922 4863 2597 4863 
L 3456 4863 
z
" transform="scale(0.015625)"/>
      <path id="DejaVuSans-BoldOblique-6c" d="M 1141 4863 
L 2266 4863 
L 1319 0 
L 197 0 
L 1141 4863 
z
" transform="scale(0.015625)"/>
      <path id="DejaVuSans-BoldOblique-6f" d="M 2400 2784 
Q 1966 2784 1684 2390 
Q 1403 1997 1403 1388 
Q 1403 1056 1554 882 
Q 1706 709 1997 709 
Q 2431 709 2712 1104 
Q 2994 1500 2994 2113 
Q 2994 2441 2842 2612 
Q 2691 2784 2400 2784 
z
M 2491 3584 
Q 3272 3584 3719 3187 
Q 4166 2791 4166 2106 
Q 4166 1709 4025 1336 
Q 3884 963 3616 653 
Q 3297 284 2862 96 
Q 2428 -91 1894 -91 
Q 1122 -91 676 306 
Q 231 703 231 1388 
Q 231 1781 375 2157 
Q 519 2534 788 2847 
Q 1100 3209 1533 3396 
Q 1966 3584 2491 3584 
z
" transform="scale(0.015625)"/>
      <path id="DejaVuSans-BoldOblique-77" d="M 556 3500 
L 1588 3500 
L 1709 1094 
L 2766 3500 
L 3653 3500 
L 3781 1100 
L 4831 3500 
L 5931 3500 
L 4331 0 
L 3144 0 
L 3028 2406 
L 1959 0 
L 800 0 
L 556 3500 
z
" transform="scale(0.015625)"/>
      <path id="DejaVuSans-BoldOblique-61" d="M 2106 1575 
Q 1688 1575 1473 1445 
Q 1259 1316 1259 1063 
Q 1259 872 1386 762 
Q 1513 653 1734 653 
Q 2078 653 2309 861 
Q 2541 1069 2619 1447 
L 2644 1575 
L 2106 1575 
z
M 3853 1997 
L 3463 0 
L 2344 0 
L 2438 519 
Q 2163 206 1856 57 
Q 1550 -91 1191 -91 
Q 694 -91 401 167 
Q 109 425 109 863 
Q 109 1531 626 1886 
Q 1144 2241 2119 2241 
L 2778 2241 
L 2791 2328 
Q 2800 2372 2801 2390 
Q 2803 2409 2803 2425 
Q 2803 2631 2608 2736 
Q 2413 2841 2028 2841 
Q 1681 2841 1356 2769 
Q 1031 2697 728 2553 
L 897 3406 
Q 1247 3494 1614 3539 
Q 1981 3584 2375 3584 
Q 3153 3584 3531 3317 
Q 3909 3050 3909 2503 
Q 3909 2397 3895 2270 
Q 3881 2144 3853 1997 
z
" transform="scale(0.015625)"/>
     </defs>
     <use xlink:href="#DejaVuSans-BoldOblique-51"/>
     <use xlink:href="#DejaVuSans-BoldOblique-5f" transform="translate(85.009766 0)"/>
     <use xlink:href="#DejaVuSans-BoldOblique-66" transform="translate(135.009766 0)"/>
     <use xlink:href="#DejaVuSans-BoldOblique-6c" transform="translate(178.515625 0)"/>
     <use xlink:href="#DejaVuSans-BoldOblique-6f" transform="translate(212.792969 0)"/>
     <use xlink:href="#DejaVuSans-BoldOblique-77" transform="translate(281.494141 0)"/>
     <use xlink:href="#DejaVuSans-BoldOblique-5f" transform="translate(373.876953 0)"/>
     <use xlink:href="#DejaVuSans-BoldOblique-61" transform="translate(423.876953 0)"/>
    </g>
   </g>
   <g id="text_3">
    <!-- Component B -->
    <g style="fill: #2c3e50" transform="translate(70.977484 433.736516) scale(0.11 -0.11)">
     <defs>
      <path id="DejaVuSans-Bold-42" d="M 2456 2859 
Q 2741 2859 2887 2984 
Q 3034 3109 3034 3353 
Q 3034 3594 2887 3720 
Q 2741 3847 2456 3847 
L 1791 3847 
L 1791 2859 
L 2456 2859 
z
M 2497 819 
Q 2859 819 3042 972 
Q 3225 1125 3225 1434 
Q 3225 1738 3044 1889 
Q 2863 2041 2497 2041 
L 1791 2041 
L 1791 819 
L 2497 819 
z
M 3616 2497 
Q 4003 2384 4215 2081 
Q 4428 1778 4428 1338 
Q 4428 663 3972 331 
Q 3516 0 2584 0 
L 588 0 
L 588 4666 
L 2394 4666 
Q 3366 4666 3802 4372 
Q 4238 4078 4238 3431 
Q 4238 3091 4078 2852 
Q 3919 2613 3616 2497 
z
" transform="scale(0.015625)"/>
     </defs>
     <use xlink:href="#DejaVuSans-Bold-43"/>
     <use xlink:href="#DejaVuSans-Bold-6f" transform="translate(73.388672 0)"/>
     <use xlink:href="#DejaVuSans-Bold-6d" transform="translate(142.089844 0)"/>
     <use xlink:href="#DejaVuSans-Bold-70" transform="translate(246.289062 0)"/>
     <use xlink:href="#DejaVuSans-Bold-6f" transform="translate(317.871094 0)"/>
     <use xlink:href="#DejaVuSans-Bold-6e" transform="translate(386.572266 0)"/>
     <use xlink:href="#DejaVuSans-Bold-65" transform="translate(457.763672 0)"/>
     <use xlink:href="#DejaVuSans-Bold-6e" transform="translate(525.585938 0)"/>
     <use xlink:href="#DejaVuSans-Bold-74" transform="translate(596.777344 0)"/>
     <use xlink:href="#DejaVuSans-Bold-20" transform="translate(644.580078 0)"/>
     <use xlink:href="#DejaVuSans-Bold-42" transform="translate(679.394531 0)"/>
    </g>
    <!-- (Conductor) -->
    <g style="fill: #2c3e50" transform="translate(75.545922 446.054109) scale(0.11 -0.11)">
     <defs>
      <path id="DejaVuSans-Bold-64" d="M 2919 2988 
L 2919 4863 
L 4044 4863 
L 4044 0 
L 2919 0 
L 2919 506 
Q 2688 197 2409 53 
Q 2131 -91 1766 -91 
Q 1119 -91 703 423 
Q 288 938 288 1747 
Q 288 2556 703 3070 
Q 1119 3584 1766 3584 
Q 2128 3584 2408 3439 
Q 2688 3294 2919 2988 
z
M 2181 722 
Q 2541 722 2730 984 
Q 2919 1247 2919 1747 
Q 2919 2247 2730 2509 
Q 2541 2772 2181 2772 
Q 1825 2772 1636 2509 
Q 1447 2247 1447 1747 
Q 1447 1247 1636 984 
Q 1825 722 2181 722 
z
" transform="scale(0.015625)"/>
     </defs>
     <use xlink:href="#DejaVuSans-Bold-28"/>
     <use xlink:href="#DejaVuSans-Bold-43" transform="translate(45.703125 0)"/>
     <use xlink:href="#DejaVuSans-Bold-6f" transform="translate(119.091797 0)"/>
     <use xlink:href="#DejaVuSans-Bold-6e" transform="translate(187.792969 0)"/>
     <use xlink:href="#DejaVuSans-Bold-64" transform="translate(258.984375 0)"/>
     <use xlink:href="#DejaVuSans-Bold-75" transform="translate(330.566406 0)"/>
     <use xlink:href="#DejaVuSans-Bold-63" transform="translate(401.757812 0)"/>
     <use xlink:href="#DejaVuSans-Bold-74" transform="translate(461.035156 0)"/>
     <use xlink:href="#DejaVuSans-Bold-6f" transform="translate(508.837891 0)"/>
     <use xlink:href="#DejaVuSans-Bold-72" transform="translate(577.539062 0)"/>
     <use xlink:href="#DejaVuSans-Bold-29" transform="translate(626.855469 0)"/>
    </g>
   </g>
   <g id="text_4">
    <!-- Q_flow_b -->
    <g style="fill: #3498db" transform="translate(210.319875 387.336375) scale(0.12 -0.12)">
     <defs>
      <path id="DejaVuSans-BoldOblique-62" d="M 2597 2772 
Q 2166 2772 1892 2373 
Q 1619 1975 1619 1338 
Q 1619 1050 1773 886 
Q 1928 722 2203 722 
Q 2625 722 2900 1114 
Q 3175 1506 3175 2119 
Q 3175 2438 3026 2605 
Q 2878 2772 2597 2772 
z
M 1422 506 
L 1319 0 
L 197 0 
L 1141 4863 
L 2266 4863 
L 1900 2988 
Q 2156 3294 2437 3439 
Q 2719 3584 3053 3584 
Q 3644 3584 3987 3209 
Q 4331 2834 4331 2188 
Q 4331 1784 4211 1403 
Q 4091 1022 3866 709 
Q 3581 316 3223 112 
Q 2866 -91 2456 -91 
Q 2097 -91 1845 54 
Q 1594 200 1422 506 
z
" transform="scale(0.015625)"/>
     </defs>
     <use xlink:href="#DejaVuSans-BoldOblique-51"/>
     <use xlink:href="#DejaVuSans-BoldOblique-5f" transform="translate(85.009766 0)"/>
     <use xlink:href="#DejaVuSans-BoldOblique-66" transform="translate(135.009766 0)"/>
     <use xlink:href="#DejaVuSans-BoldOblique-6c" transform="translate(178.515625 0)"/>
     <use xlink:href="#DejaVuSans-BoldOblique-6f" transform="translate(212.792969 0)"/>
     <use xlink:href="#DejaVuSans-BoldOblique-77" transform="translate(281.494141 0)"/>
     <use xlink:href="#DejaVuSans-BoldOblique-5f" transform="translate(373.876953 0)"/>
     <use xlink:href="#DejaVuSans-BoldOblique-62" transform="translate(423.876953 0)"/>
    </g>
   </g>
   <g id="text_5">
    <!-- Component C -->
    <g style="fill: #2c3e50" transform="translate(514.653031 295.136516) scale(0.11 -0.11)">
     <use xlink:href="#DejaVuSans-Bold-43"/>
     <use xlink:href="#DejaVuSans-Bold-6f" transform="translate(73.388672 0)"/>
     <use xlink:href="#DejaVuSans-Bold-6d" transform="translate(142.089844 0)"/>
     <use xlink:href="#DejaVuSans-Bold-70" transform="translate(246.289062 0)"/>
     <use xlink:href="#DejaVuSans-Bold-6f" transform="translate(317.871094 0)"/>
     <use xlink:href="#DejaVuSans-Bold-6e" transform="translate(386.572266 0)"/>
     <use xlink:href="#DejaVuSans-Bold-65" transform="translate(457.763672 0)"/>
     <use xlink:href="#DejaVuSans-Bold-6e" transform="translate(525.585938 0)"/>
     <use xlink:href="#DejaVuSans-Bold-74" transform="translate(596.777344 0)"/>
     <use xlink:href="#DejaVuSans-Bold-20" transform="translate(644.580078 0)"/>
     <use xlink:href="#DejaVuSans-Bold-43" transform="translate(679.394531 0)"/>
    </g>
    <!-- (Heat Capacitor) -->
    <g style="fill: #2c3e50" transform="translate(504.777953 307.454109) scale(0.11 -0.11)">
     <defs>
      <path id="DejaVuSans-Bold-69" d="M 538 3500 
L 1656 3500 
L 1656 0 
L 538 0 
L 538 3500 
z
M 538 4863 
L 1656 4863 
L 1656 3950 
L 538 3950 
L 538 4863 
z
" transform="scale(0.015625)"/>
     </defs>
     <use xlink:href="#DejaVuSans-Bold-28"/>
     <use xlink:href="#DejaVuSans-Bold-48" transform="translate(45.703125 0)"/>
     <use xlink:href="#DejaVuSans-Bold-65" transform="translate(129.394531 0)"/>
     <use xlink:href="#DejaVuSans-Bold-61" transform="translate(197.216797 0)"/>
     <use xlink:href="#DejaVuSans-Bold-74" transform="translate(264.697266 0)"/>
     <use xlink:href="#DejaVuSans-Bold-20" transform="translate(312.5 0)"/>
     <use xlink:href="#DejaVuSans-Bold-43" transform="translate(347.314453 0)"/>
     <use xlink:href="#DejaVuSans-Bold-61" transform="translate(420.703125 0)"/>
     <use xlink:href="#DejaVuSans-Bold-70" transform="translate(488.183594 0)"/>
     <use xlink:href="#DejaVuSans-Bold-61" transform="translate(559.765625 0)"/>
     <use xlink:href="#DejaVuSans-Bold-63" transform="translate(627.246094 0)"/>
     <use xlink:href="#DejaVuSans-Bold-69" transform="translate(686.523438 0)"/>
     <use xlink:href="#DejaVuSans-Bold-74" transform="translate(720.800781 0)"/>
     <use xlink:href="#DejaVuSans-Bold-6f" transform="translate(768.603516 0)"/>
     <use xlink:href="#DejaVuSans-Bold-72" transform="translate(837.304688 0)"/>
     <use xlink:href="#DejaVuSans-Bold-29" transform="translate(886.621094 0)"/>
    </g>
   </g>
   <g id="text_6">
    <!-- Q_flow_c -->
    <g style="fill: #27ae60" transform="translate(394.009687 254.280375) scale(0.12 -0.12)">
     <defs>
      <path id="DejaVuSans-BoldOblique-63" d="M 3719 3391 
L 3541 2478 
Q 3316 2628 3097 2706 
Q 2878 2784 2669 2784 
Q 2122 2784 1775 2417 
Q 1428 2050 1428 1478 
Q 1428 1113 1643 911 
Q 1859 709 2253 709 
Q 2516 709 2769 787 
Q 3022 866 3250 1019 
L 3078 103 
Q 2800 6 2519 -42 
Q 2238 -91 1953 -91 
Q 1128 -91 683 279 
Q 238 650 238 1331 
Q 238 1759 402 2162 
Q 566 2566 872 2888 
Q 1213 3241 1653 3412 
Q 2094 3584 2669 3584 
Q 2934 3584 3196 3536 
Q 3459 3488 3719 3391 
z
" transform="scale(0.015625)"/>
     </defs>
     <use xlink:href="#DejaVuSans-BoldOblique-51"/>
     <use xlink:href="#DejaVuSans-BoldOblique-5f" transform="translate(85.009766 0)"/>
     <use xlink:href="#DejaVuSans-BoldOblique-66" transform="translate(135.009766 0)"/>
     <use xlink:href="#DejaVuSans-BoldOblique-6c" transform="translate(178.515625 0)"/>
     <use xlink:href="#DejaVuSans-BoldOblique-6f" transform="translate(212.792969 0)"/>
     <use xlink:href="#DejaVuSans-BoldOblique-77" transform="translate(281.494141 0)"/>
     <use xlink:href="#DejaVuSans-BoldOblique-5f" transform="translate(373.876953 0)"/>
     <use xlink:href="#DejaVuSans-BoldOblique-63" transform="translate(423.876953 0)"/>
    </g>
   </g>
   <g id="text_7">
    <!-- Connection -->
    <g style="fill: #2c3e50" transform="translate(373.104 236.53075) scale(0.11 -0.11)">
     <defs>
      <path id="DejaVuSans-Oblique-43" d="M 4447 4306 
L 4319 3641 
Q 4019 3944 3683 4091 
Q 3347 4238 2956 4238 
Q 2422 4238 2017 3981 
Q 1613 3725 1319 3200 
Q 1131 2863 1032 2486 
Q 934 2109 934 1728 
Q 934 1091 1264 756 
Q 1594 422 2222 422 
Q 2656 422 3056 561 
Q 3456 700 3834 978 
L 3688 231 
Q 3316 72 2936 -9 
Q 2556 -91 2175 -91 
Q 1278 -91 773 396 
Q 269 884 269 1753 
Q 269 2309 461 2846 
Q 653 3384 1013 3828 
Q 1394 4300 1883 4525 
Q 2372 4750 3022 4750 
Q 3422 4750 3780 4639 
Q 4138 4528 4447 4306 
z
" transform="scale(0.015625)"/>
      <path id="DejaVuSans-Oblique-6f" d="M 1625 -91 
Q 1009 -91 651 289 
Q 294 669 294 1325 
Q 294 1706 417 2101 
Q 541 2497 738 2766 
Q 1047 3184 1428 3384 
Q 1809 3584 2291 3584 
Q 2888 3584 3255 3212 
Q 3622 2841 3622 2241 
Q 3622 1825 3500 1412 
Q 3378 1000 3181 728 
Q 2875 309 2494 109 
Q 2113 -91 1625 -91 
z
M 891 1344 
Q 891 869 1089 633 
Q 1288 397 1691 397 
Q 2269 397 2648 901 
Q 3028 1406 3028 2181 
Q 3028 2634 2825 2865 
Q 2622 3097 2228 3097 
Q 1903 3097 1650 2945 
Q 1397 2794 1197 2484 
Q 1050 2253 970 1956 
Q 891 1659 891 1344 
z
" transform="scale(0.015625)"/>
      <path id="DejaVuSans-Oblique-6e" d="M 3566 2113 
L 3156 0 
L 2578 0 
L 2988 2091 
Q 3016 2238 3031 2350 
Q 3047 2463 3047 2528 
Q 3047 2791 2881 2937 
Q 2716 3084 2419 3084 
Q 1956 3084 1622 2776 
Q 1288 2469 1184 1941 
L 800 0 
L 225 0 
L 903 3500 
L 1478 3500 
L 1363 2950 
Q 1603 3253 1940 3418 
Q 2278 3584 2650 3584 
Q 3113 3584 3367 3334 
Q 3622 3084 3622 2631 
Q 3622 2519 3608 2391 
Q 3594 2263 3566 2113 
z
" transform="scale(0.015625)"/>
      <path id="DejaVuSans-Oblique-65" d="M 3078 2063 
Q 3088 2113 3092 2166 
Q 3097 2219 3097 2272 
Q 3097 2653 2873 2875 
Q 2650 3097 2266 3097 
Q 1838 3097 1509 2826 
Q 1181 2556 1013 2059 
L 3078 2063 
z
M 3578 1613 
L 903 1613 
Q 884 1494 878 1425 
Q 872 1356 872 1306 
Q 872 872 1139 634 
Q 1406 397 1894 397 
Q 2269 397 2603 481 
Q 2938 566 3225 728 
L 3116 159 
Q 2806 34 2476 -28 
Q 2147 -91 1806 -91 
Q 1078 -91 686 257 
Q 294 606 294 1247 
Q 294 1794 489 2264 
Q 684 2734 1063 3103 
Q 1306 3334 1642 3459 
Q 1978 3584 2356 3584 
Q 2950 3584 3301 3228 
Q 3653 2872 3653 2272 
Q 3653 2128 3634 1964 
Q 3616 1800 3578 1613 
z
" transform="scale(0.015625)"/>
      <path id="DejaVuSans-Oblique-63" d="M 3431 3366 
L 3316 2797 
Q 3109 2947 2876 3022 
Q 2644 3097 2394 3097 
Q 2119 3097 1870 3000 
Q 1622 2903 1453 2725 
Q 1184 2453 1037 2087 
Q 891 1722 891 1331 
Q 891 859 1127 628 
Q 1363 397 1844 397 
Q 2081 397 2348 469 
Q 2616 541 2906 684 
L 2797 116 
Q 2547 13 2283 -39 
Q 2019 -91 1741 -91 
Q 1044 -91 669 257 
Q 294 606 294 1253 
Q 294 1797 489 2255 
Q 684 2713 1069 3078 
Q 1331 3328 1684 3456 
Q 2038 3584 2456 3584 
Q 2700 3584 2940 3529 
Q 3181 3475 3431 3366 
z
" transform="scale(0.015625)"/>
      <path id="DejaVuSans-Oblique-74" d="M 2706 3500 
L 2619 3053 
L 1472 3053 
L 1100 1153 
Q 1081 1047 1072 975 
Q 1063 903 1063 863 
Q 1063 663 1183 572 
Q 1303 481 1569 481 
L 2150 481 
L 2053 0 
L 1503 0 
Q 991 0 739 200 
Q 488 400 488 806 
Q 488 878 497 964 
Q 506 1050 525 1153 
L 897 3053 
L 409 3053 
L 500 3500 
L 978 3500 
L 1172 4494 
L 1747 4494 
L 1556 3500 
L 2706 3500 
z
" transform="scale(0.015625)"/>
      <path id="DejaVuSans-Oblique-69" d="M 1172 4863 
L 1747 4863 
L 1606 4134 
L 1031 4134 
L 1172 4863 
z
M 909 3500 
L 1484 3500 
L 800 0 
L 225 0 
L 909 3500 
z
" transform="scale(0.015625)"/>
     </defs>
     <use xlink:href="#DejaVuSans-Oblique-43"/>
     <use xlink:href="#DejaVuSans-Oblique-6f" transform="translate(69.824219 0)"/>
     <use xlink:href="#DejaVuSans-Oblique-6e" transform="translate(131.005859 0)"/>
     <use xlink:href="#DejaVuSans-Oblique-6e" transform="translate(194.384766 0)"/>
     <use xlink:href="#DejaVuSans-Oblique-65" transform="translate(257.763672 0)"/>
     <use xlink:href="#DejaVuSans-Oblique-63" transform="translate(319.287109 0)"/>
     <use xlink:href="#DejaVuSans-Oblique-74" transform="translate(374.267578 0)"/>
     <use xlink:href="#DejaVuSans-Oblique-69" transform="translate(413.476562 0)"/>
     <use xlink:href="#DejaVuSans-Oblique-6f" transform="translate(441.259766 0)"/>
     <use xlink:href="#DejaVuSans-Oblique-6e" transform="translate(502.441406 0)"/>
    </g>
    <!-- Point -->
    <g style="fill: #2c3e50" transform="translate(373.104 248.848344) scale(0.11 -0.11)">
     <defs>
      <path id="DejaVuSans-Oblique-50" d="M 1081 4666 
L 2541 4666 
Q 3178 4666 3512 4369 
Q 3847 4072 3847 3500 
Q 3847 2731 3353 2303 
Q 2859 1875 1966 1875 
L 1172 1875 
L 806 0 
L 172 0 
L 1081 4666 
z
M 1613 4147 
L 1275 2394 
L 2069 2394 
Q 2606 2394 2893 2669 
Q 3181 2944 3181 3456 
Q 3181 3784 2986 3965 
Q 2791 4147 2438 4147 
L 1613 4147 
z
" transform="scale(0.015625)"/>
     </defs>
     <use xlink:href="#DejaVuSans-Oblique-50"/>
     <use xlink:href="#DejaVuSans-Oblique-6f" transform="translate(60.302734 0)"/>
     <use xlink:href="#DejaVuSans-Oblique-69" transform="translate(121.484375 0)"/>
     <use xlink:href="#DejaVuSans-Oblique-6e" transform="translate(149.267578 0)"/>
     <use xlink:href="#DejaVuSans-Oblique-74" transform="translate(212.646484 0)"/>
    </g>
   </g>
   <g id="text_8">
    <!-- Modelica generates automatically: -->
    <g style="fill: #2c3e50" transform="translate(236.56875 68.72325) scale(0.12 -0.12)">
     <defs>
      <path id="DejaVuSans-4d" d="M 628 4666 
L 1569 4666 
L 2759 1491 
L 3956 4666 
L 4897 4666 
L 4897 0 
L 4281 0 
L 4281 4097 
L 3078 897 
L 2444 897 
L 1241 4097 
L 1241 0 
L 628 0 
L 628 4666 
z
" transform="scale(0.015625)"/>
      <path id="DejaVuSans-6f" d="M 1959 3097 
Q 1497 3097 1228 2736 
Q 959 2375 959 1747 
Q 959 1119 1226 758 
Q 1494 397 1959 397 
Q 2419 397 2687 759 
Q 2956 1122 2956 1747 
Q 2956 2369 2687 2733 
Q 2419 3097 1959 3097 
z
M 1959 3584 
Q 2709 3584 3137 3096 
Q 3566 2609 3566 1747 
Q 3566 888 3137 398 
Q 2709 -91 1959 -91 
Q 1206 -91 779 398 
Q 353 888 353 1747 
Q 353 2609 779 3096 
Q 1206 3584 1959 3584 
z
" transform="scale(0.015625)"/>
      <path id="DejaVuSans-64" d="M 2906 2969 
L 2906 4863 
L 3481 4863 
L 3481 0 
L 2906 0 
L 2906 525 
Q 2725 213 2448 61 
Q 2172 -91 1784 -91 
Q 1150 -91 751 415 
Q 353 922 353 1747 
Q 353 2572 751 3078 
Q 1150 3584 1784 3584 
Q 2172 3584 2448 3432 
Q 2725 3281 2906 2969 
z
M 947 1747 
Q 947 1113 1208 752 
Q 1469 391 1925 391 
Q 2381 391 2643 752 
Q 2906 1113 2906 1747 
Q 2906 2381 2643 2742 
Q 2381 3103 1925 3103 
Q 1469 3103 1208 2742 
Q 947 2381 947 1747 
z
" transform="scale(0.015625)"/>
      <path id="DejaVuSans-65" d="M 3597 1894 
L 3597 1613 
L 953 1613 
Q 991 1019 1311 708 
Q 1631 397 2203 397 
Q 2534 397 2845 478 
Q 3156 559 3463 722 
L 3463 178 
Q 3153 47 2828 -22 
Q 2503 -91 2169 -91 
Q 1331 -91 842 396 
Q 353 884 353 1716 
Q 353 2575 817 3079 
Q 1281 3584 2069 3584 
Q 2775 3584 3186 3129 
Q 3597 2675 3597 1894 
z
M 3022 2063 
Q 3016 2534 2758 2815 
Q 2500 3097 2075 3097 
Q 1594 3097 1305 2825 
Q 1016 2553 972 2059 
L 3022 2063 
z
" transform="scale(0.015625)"/>
      <path id="DejaVuSans-6c" d="M 603 4863 
L 1178 4863 
L 1178 0 
L 603 0 
L 603 4863 
z
" transform="scale(0.015625)"/>
      <path id="DejaVuSans-69" d="M 603 3500 
L 1178 3500 
L 1178 0 
L 603 0 
L 603 3500 
z
M 603 4863 
L 1178 4863 
L 1178 4134 
L 603 4134 
L 603 4863 
z
" transform="scale(0.015625)"/>
      <path id="DejaVuSans-63" d="M 3122 3366 
L 3122 2828 
Q 2878 2963 2633 3030 
Q 2388 3097 2138 3097 
Q 1578 3097 1268 2742 
Q 959 2388 959 1747 
Q 959 1106 1268 751 
Q 1578 397 2138 397 
Q 2388 397 2633 464 
Q 2878 531 3122 666 
L 3122 134 
Q 2881 22 2623 -34 
Q 2366 -91 2075 -91 
Q 1284 -91 818 406 
Q 353 903 353 1747 
Q 353 2603 823 3093 
Q 1294 3584 2113 3584 
Q 2378 3584 2631 3529 
Q 2884 3475 3122 3366 
z
" transform="scale(0.015625)"/>
      <path id="DejaVuSans-61" d="M 2194 1759 
Q 1497 1759 1228 1600 
Q 959 1441 959 1056 
Q 959 750 1161 570 
Q 1363 391 1709 391 
Q 2188 391 2477 730 
Q 2766 1069 2766 1631 
L 2766 1759 
L 2194 1759 
z
M 3341 1997 
L 3341 0 
L 2766 0 
L 2766 531 
Q 2569 213 2275 61 
Q 1981 -91 1556 -91 
Q 1019 -91 701 211 
Q 384 513 384 1019 
Q 384 1609 779 1909 
Q 1175 2209 1959 2209 
L 2766 2209 
L 2766 2266 
Q 2766 2663 2505 2880 
Q 2244 3097 1772 3097 
Q 1472 3097 1187 3025 
Q 903 2953 641 2809 
L 641 3341 
Q 956 3463 1253 3523 
Q 1550 3584 1831 3584 
Q 2591 3584 2966 3190 
Q 3341 2797 3341 1997 
z
" transform="scale(0.015625)"/>
      <path id="DejaVuSans-20" transform="scale(0.015625)"/>
      <path id="DejaVuSans-67" d="M 2906 1791 
Q 2906 2416 2648 2759 
Q 2391 3103 1925 3103 
Q 1463 3103 1205 2759 
Q 947 2416 947 1791 
Q 947 1169 1205 825 
Q 1463 481 1925 481 
Q 2391 481 2648 825 
Q 2906 1169 2906 1791 
z
M 3481 434 
Q 3481 -459 3084 -895 
Q 2688 -1331 1869 -1331 
Q 1566 -1331 1297 -1286 
Q 1028 -1241 775 -1147 
L 775 -588 
Q 1028 -725 1275 -790 
Q 1522 -856 1778 -856 
Q 2344 -856 2625 -561 
Q 2906 -266 2906 331 
L 2906 616 
Q 2728 306 2450 153 
Q 2172 0 1784 0 
Q 1141 0 747 490 
Q 353 981 353 1791 
Q 353 2603 747 3093 
Q 1141 3584 1784 3584 
Q 2172 3584 2450 3431 
Q 2728 3278 2906 2969 
L 2906 3500 
L 3481 3500 
L 3481 434 
z
" transform="scale(0.015625)"/>
      <path id="DejaVuSans-6e" d="M 3513 2113 
L 3513 0 
L 2938 0 
L 2938 2094 
Q 2938 2591 2744 2837 
Q 2550 3084 2163 3084 
Q 1697 3084 1428 2787 
Q 1159 2491 1159 1978 
L 1159 0 
L 581 0 
L 581 3500 
L 1159 3500 
L 1159 2956 
Q 1366 3272 1645 3428 
Q 1925 3584 2291 3584 
Q 2894 3584 3203 3211 
Q 3513 2838 3513 2113 
z
" transform="scale(0.015625)"/>
      <path id="DejaVuSans-72" d="M 2631 2963 
Q 2534 3019 2420 3045 
Q 2306 3072 2169 3072 
Q 1681 3072 1420 2755 
Q 1159 2438 1159 1844 
L 1159 0 
L 581 0 
L 581 3500 
L 1159 3500 
L 1159 2956 
Q 1341 3275 1631 3429 
Q 1922 3584 2338 3584 
Q 2397 3584 2469 3576 
Q 2541 3569 2628 3553 
L 2631 2963 
z
" transform="scale(0.015625)"/>
      <path id="DejaVuSans-74" d="M 1172 4494 
L 1172 3500 
L 2356 3500 
L 2356 3053 
L 1172 3053 
L 1172 1153 
Q 1172 725 1289 603 
Q 1406 481 1766 481 
L 2356 481 
L 2356 0 
L 1766 0 
Q 1100 0 847 248 
Q 594 497 594 1153 
L 594 3053 
L 172 3053 
L 172 3500 
L 594 3500 
L 594 4494 
L 1172 4494 
z
" transform="scale(0.015625)"/>
      <path id="DejaVuSans-73" d="M 2834 3397 
L 2834 2853 
Q 2591 2978 2328 3040 
Q 2066 3103 1784 3103 
Q 1356 3103 1142 2972 
Q 928 2841 928 2578 
Q 928 2378 1081 2264 
Q 1234 2150 1697 2047 
L 1894 2003 
Q 2506 1872 2764 1633 
Q 3022 1394 3022 966 
Q 3022 478 2636 193 
Q 2250 -91 1575 -91 
Q 1294 -91 989 -36 
Q 684 19 347 128 
L 347 722 
Q 666 556 975 473 
Q 1284 391 1588 391 
Q 1994 391 2212 530 
Q 2431 669 2431 922 
Q 2431 1156 2273 1281 
Q 2116 1406 1581 1522 
L 1381 1569 
Q 847 1681 609 1914 
Q 372 2147 372 2553 
Q 372 3047 722 3315 
Q 1072 3584 1716 3584 
Q 2034 3584 2315 3537 
Q 2597 3491 2834 3397 
z
" transform="scale(0.015625)"/>
      <path id="DejaVuSans-75" d="M 544 1381 
L 544 3500 
L 1119 3500 
L 1119 1403 
Q 1119 906 1312 657 
Q 1506 409 1894 409 
Q 2359 409 2629 706 
Q 2900 1003 2900 1516 
L 2900 3500 
L 3475 3500 
L 3475 0 
L 2900 0 
L 2900 538 
Q 2691 219 2414 64 
Q 2138 -91 1772 -91 
Q 1169 -91 856 284 
Q 544 659 544 1381 
z
M 1991 3584 
L 1991 3584 
z
" transform="scale(0.015625)"/>
      <path id="DejaVuSans-6d" d="M 3328 2828 
Q 3544 3216 3844 3400 
Q 4144 3584 4550 3584 
Q 5097 3584 5394 3201 
Q 5691 2819 5691 2113 
L 5691 0 
L 5113 0 
L 5113 2094 
Q 5113 2597 4934 2840 
Q 4756 3084 4391 3084 
Q 3944 3084 3684 2787 
Q 3425 2491 3425 1978 
L 3425 0 
L 2847 0 
L 2847 2094 
Q 2847 2600 2669 2842 
Q 2491 3084 2119 3084 
Q 1678 3084 1418 2786 
Q 1159 2488 1159 1978 
L 1159 0 
L 581 0 
L 581 3500 
L 1159 3500 
L 1159 2956 
Q 1356 3278 1631 3431 
Q 1906 3584 2284 3584 
Q 2666 3584 2933 3390 
Q 3200 3197 3328 2828 
z
" transform="scale(0.015625)"/>
      <path id="DejaVuSans-79" d="M 2059 -325 
Q 1816 -950 1584 -1140 
Q 1353 -1331 966 -1331 
L 506 -1331 
L 506 -850 
L 844 -850 
Q 1081 -850 1212 -737 
Q 1344 -625 1503 -206 
L 1606 56 
L 191 3500 
L 800 3500 
L 1894 763 
L 2988 3500 
L 3597 3500 
L 2059 -325 
z
" transform="scale(0.015625)"/>
      <path id="DejaVuSans-3a" d="M 750 794 
L 1409 794 
L 1409 0 
L 750 0 
L 750 794 
z
M 750 3309 
L 1409 3309 
L 1409 2516 
L 750 2516 
L 750 3309 
z
" transform="scale(0.015625)"/>
     </defs>
     <use xlink:href="#DejaVuSans-4d"/>
     <use xlink:href="#DejaVuSans-6f" transform="translate(86.279297 0)"/>
     <use xlink:href="#DejaVuSans-64" transform="translate(147.460938 0)"/>
     <use xlink:href="#DejaVuSans-65" transform="translate(210.9375 0)"/>
     <use xlink:href="#DejaVuSans-6c" transform="translate(272.460938 0)"/>
     <use xlink:href="#DejaVuSans-69" transform="translate(300.244141 0)"/>
     <use xlink:href="#DejaVuSans-63" transform="translate(328.027344 0)"/>
     <use xlink:href="#DejaVuSans-61" transform="translate(383.007812 0)"/>
     <use xlink:href="#DejaVuSans-20" transform="translate(444.287109 0)"/>
     <use xlink:href="#DejaVuSans-67" transform="translate(476.074219 0)"/>
     <use xlink:href="#DejaVuSans-65" transform="translate(539.550781 0)"/>
     <use xlink:href="#DejaVuSans-6e" transform="translate(601.074219 0)"/>
     <use xlink:href="#DejaVuSans-65" transform="translate(664.453125 0)"/>
     <use xlink:href="#DejaVuSans-72" transform="translate(725.976562 0)"/>
     <use xlink:href="#DejaVuSans-61" transform="translate(767.089844 0)"/>
     <use xlink:href="#DejaVuSans-74" transform="translate(828.369141 0)"/>
     <use xlink:href="#DejaVuSans-65" transform="translate(867.578125 0)"/>
     <use xlink:href="#DejaVuSans-73" transform="translate(929.101562 0)"/>
     <use xlink:href="#DejaVuSans-20" transform="translate(981.201172 0)"/>
     <use xlink:href="#DejaVuSans-61" transform="translate(1012.988281 0)"/>
     <use xlink:href="#DejaVuSans-75" transform="translate(1074.267578 0)"/>
     <use xlink:href="#DejaVuSans-74" transform="translate(1137.646484 0)"/>
     <use xlink:href="#DejaVuSans-6f" transform="translate(1176.855469 0)"/>
     <use xlink:href="#DejaVuSans-6d" transform="translate(1238.037109 0)"/>
     <use xlink:href="#DejaVuSans-61" transform="translate(1335.449219 0)"/>
     <use xlink:href="#DejaVuSans-74" transform="translate(1396.728516 0)"/>
     <use xlink:href="#DejaVuSans-69" transform="translate(1435.9375 0)"/>
     <use xlink:href="#DejaVuSans-63" transform="translate(1463.720703 0)"/>
     <use xlink:href="#DejaVuSans-61" transform="translate(1518.701172 0)"/>
     <use xlink:href="#DejaVuSans-6c" transform="translate(1579.980469 0)"/>
     <use xlink:href="#DejaVuSans-6c" transform="translate(1607.763672 0)"/>
     <use xlink:href="#DejaVuSans-79" transform="translate(1635.546875 0)"/>
     <use xlink:href="#DejaVuSans-3a" transform="translate(1687.476562 0)"/>
    </g>
   </g>
   <g id="text_9">
    <!-- Q_flow_a + Q_flow_b + Q_flow_c = 0 -->
    <g style="fill: #e67e22" transform="translate(196.556562 94.028437) scale(0.14 -0.14)">
     <defs>
      <path id="DejaVuSansMono-Bold-51" d="M 2050 -72 
Q 2006 -81 1976 -86 
Q 1947 -91 1919 -91 
Q 1116 -91 702 521 
Q 288 1134 288 2328 
Q 288 3525 702 4137 
Q 1116 4750 1925 4750 
Q 2738 4750 3152 4137 
Q 3566 3525 3566 2328 
Q 3566 1506 3369 951 
Q 3172 397 2797 159 
L 3378 -409 
L 2747 -878 
L 2050 -72 
z
M 1925 3922 
Q 1572 3922 1409 3545 
Q 1247 3169 1247 2328 
Q 1247 1491 1409 1114 
Q 1572 738 1925 738 
Q 2281 738 2443 1114 
Q 2606 1491 2606 2328 
Q 2606 3169 2443 3545 
Q 2281 3922 1925 3922 
z
" transform="scale(0.015625)"/>
      <path id="DejaVuSansMono-Bold-5f" d="M 3853 -916 
L 3853 -1509 
L 0 -1509 
L 0 -916 
L 3853 -916 
z
" transform="scale(0.015625)"/>
      <path id="DejaVuSansMono-Bold-66" d="M 2309 3806 
L 2309 3500 
L 3384 3500 
L 3384 2797 
L 2309 2797 
L 2309 0 
L 1394 0 
L 1394 2797 
L 544 2797 
L 544 3500 
L 1394 3500 
L 1394 3744 
Q 1394 4375 1656 4619 
Q 1919 4863 2631 4863 
L 3384 4863 
L 3384 4159 
L 2669 4159 
Q 2463 4159 2389 4084 
Q 2316 4009 2309 3806 
z
" transform="scale(0.015625)"/>
      <path id="DejaVuSansMono-Bold-6c" d="M 1209 1459 
L 1209 4159 
L 281 4159 
L 281 4863 
L 2125 4863 
L 2125 1459 
Q 2125 1047 2253 875 
Q 2381 703 2688 703 
L 3419 703 
L 3419 0 
L 2431 0 
Q 1778 0 1493 337 
Q 1209 675 1209 1459 
z
" transform="scale(0.015625)"/>
      <path id="DejaVuSansMono-Bold-6f" d="M 1925 2841 
Q 1597 2841 1409 2552 
Q 1222 2263 1222 1747 
Q 1222 1231 1409 942 
Q 1597 653 1925 653 
Q 2256 653 2443 942 
Q 2631 1231 2631 1747 
Q 2631 2263 2443 2552 
Q 2256 2841 1925 2841 
z
M 306 1747 
Q 306 2594 745 3089 
Q 1184 3584 1925 3584 
Q 2669 3584 3108 3089 
Q 3547 2594 3547 1747 
Q 3547 900 3108 404 
Q 2669 -91 1925 -91 
Q 1184 -91 745 404 
Q 306 900 306 1747 
z
" transform="scale(0.015625)"/>
      <path id="DejaVuSansMono-Bold-77" d="M 0 3500 
L 763 3500 
L 1178 819 
L 1556 2584 
L 2297 2584 
L 2669 819 
L 3091 3500 
L 3853 3500 
L 3219 0 
L 2350 0 
L 1925 1819 
L 1503 0 
L 634 0 
L 0 3500 
z
" transform="scale(0.015625)"/>
      <path id="DejaVuSansMono-Bold-61" d="M 2188 1644 
Q 1675 1644 1472 1512 
Q 1269 1381 1269 1063 
Q 1269 825 1409 684 
Q 1550 544 1791 544 
Q 2153 544 2353 817 
Q 2553 1091 2553 1581 
L 2553 1644 
L 2188 1644 
z
M 3463 1997 
L 3463 0 
L 2553 0 
L 2553 391 
Q 2388 159 2128 34 
Q 1869 -91 1556 -91 
Q 959 -91 626 225 
Q 294 541 294 1106 
Q 294 1719 691 2011 
Q 1088 2303 1919 2303 
L 2553 2303 
L 2553 2456 
Q 2553 2678 2392 2792 
Q 2231 2906 1919 2906 
Q 1591 2906 1283 2823 
Q 975 2741 641 2559 
L 641 3341 
Q 944 3466 1256 3525 
Q 1569 3584 1919 3584 
Q 2772 3584 3117 3237 
Q 3463 2891 3463 1997 
z
" transform="scale(0.015625)"/>
      <path id="DejaVuSansMono-Bold-20" transform="scale(0.015625)"/>
      <path id="DejaVuSansMono-Bold-2b" d="M 2297 3725 
L 2297 2381 
L 3641 2381 
L 3641 1638 
L 2297 1638 
L 2297 288 
L 1556 288 
L 1556 1638 
L 206 1638 
L 206 2381 
L 1556 2381 
L 1556 3725 
L 2297 3725 
z
" transform="scale(0.015625)"/>
      <path id="DejaVuSansMono-Bold-62" d="M 2656 1741 
Q 2656 2247 2487 2534 
Q 2319 2822 2022 2822 
Q 1725 2822 1553 2534 
Q 1381 2247 1381 1741 
Q 1381 1234 1553 946 
Q 1725 659 2022 659 
Q 2319 659 2487 946 
Q 2656 1234 2656 1741 
z
M 1381 3003 
Q 1550 3294 1773 3439 
Q 1997 3584 2278 3584 
Q 2900 3584 3236 3109 
Q 3572 2634 3572 1747 
Q 3572 872 3240 390 
Q 2909 -91 2309 -91 
Q 1994 -91 1759 62 
Q 1525 216 1381 519 
L 1381 0 
L 469 0 
L 469 4863 
L 1381 4863 
L 1381 3003 
z
" transform="scale(0.015625)"/>
      <path id="DejaVuSansMono-Bold-63" d="M 3316 178 
Q 3084 44 2818 -23 
Q 2553 -91 2247 -91 
Q 1438 -91 981 396 
Q 525 884 525 1747 
Q 525 2613 984 3102 
Q 1444 3591 2253 3591 
Q 2534 3591 2795 3525 
Q 3056 3459 3316 3322 
L 3316 2484 
Q 3116 2656 2877 2748 
Q 2638 2841 2381 2841 
Q 1934 2841 1693 2556 
Q 1453 2272 1453 1747 
Q 1453 1222 1693 940 
Q 1934 659 2381 659 
Q 2647 659 2878 748 
Q 3109 838 3316 1019 
L 3316 178 
z
" transform="scale(0.015625)"/>
      <path id="DejaVuSansMono-Bold-3d" d="M 275 1663 
L 3578 1663 
L 3578 922 
L 275 922 
L 275 1663 
z
M 275 3084 
L 3578 3084 
L 3578 2350 
L 275 2350 
L 275 3084 
z
" transform="scale(0.015625)"/>
      <path id="DejaVuSansMono-Bold-30" d="M 1538 2328 
Q 1538 2494 1650 2606 
Q 1763 2719 1925 2719 
Q 2091 2719 2203 2606 
Q 2316 2494 2316 2328 
Q 2316 2166 2203 2053 
Q 2091 1941 1925 1941 
Q 1763 1941 1650 2052 
Q 1538 2163 1538 2328 
z
M 1925 3969 
Q 1606 3969 1459 3578 
Q 1313 3188 1313 2328 
Q 1313 1472 1459 1081 
Q 1606 691 1925 691 
Q 2247 691 2394 1081 
Q 2541 1472 2541 2328 
Q 2541 3188 2394 3578 
Q 2247 3969 1925 3969 
z
M 384 2328 
Q 384 3541 768 4145 
Q 1153 4750 1925 4750 
Q 2700 4750 3084 4147 
Q 3469 3544 3469 2328 
Q 3469 1116 3084 512 
Q 2700 -91 1925 -91 
Q 1153 -91 768 514 
Q 384 1119 384 2328 
z
" transform="scale(0.015625)"/>
     </defs>
     <use xlink:href="#DejaVuSansMono-Bold-51"/>
     <use xlink:href="#DejaVuSansMono-Bold-5f" transform="translate(60.205078 0)"/>
     <use xlink:href="#DejaVuSansMono-Bold-66" transform="translate(120.410156 0)"/>
     <use xlink:href="#DejaVuSansMono-Bold-6c" transform="translate(180.615234 0)"/>
     <use xlink:href="#DejaVuSansMono-Bold-6f" transform="translate(240.820312 0)"/>
     <use xlink:href="#DejaVuSansMono-Bold-77" transform="translate(301.025391 0)"/>
     <use xlink:href="#DejaVuSansMono-Bold-5f" transform="translate(361.230469 0)"/>
     <use xlink:href="#DejaVuSansMono-Bold-61" transform="translate(421.435547 0)"/>
     <use xlink:href="#DejaVuSansMono-Bold-20" transform="translate(481.640625 0)"/>
     <use xlink:href="#DejaVuSansMono-Bold-2b" transform="translate(541.845703 0)"/>
     <use xlink:href="#DejaVuSansMono-Bold-20" transform="translate(602.050781 0)"/>
     <use xlink:href="#DejaVuSansMono-Bold-51" transform="translate(662.255859 0)"/>
     <use xlink:href="#DejaVuSansMono-Bold-5f" transform="translate(722.460938 0)"/>
     <use xlink:href="#DejaVuSansMono-Bold-66" transform="translate(782.666016 0)"/>
     <use xlink:href="#DejaVuSansMono-Bold-6c" transform="translate(842.871094 0)"/>
     <use xlink:href="#DejaVuSansMono-Bold-6f" transform="translate(903.076172 0)"/>
     <use xlink:href="#DejaVuSansMono-Bold-77" transform="translate(963.28125 0)"/>
     <use xlink:href="#DejaVuSansMono-Bold-5f" transform="translate(1023.486328 0)"/>
     <use xlink:href="#DejaVuSansMono-Bold-62" transform="translate(1083.691406 0)"/>
     <use xlink:href="#DejaVuSansMono-Bold-20" transform="translate(1143.896484 0)"/>
     <use xlink:href="#DejaVuSansMono-Bold-2b" transform="translate(1204.101562 0)"/>
     <use xlink:href="#DejaVuSansMono-Bold-20" transform="translate(1264.306641 0)"/>
     <use xlink:href="#DejaVuSansMono-Bold-51" transform="translate(1324.511719 0)"/>
     <use xlink:href="#DejaVuSansMono-Bold-5f" transform="translate(1384.716797 0)"/>
     <use xlink:href="#DejaVuSansMono-Bold-66" transform="translate(1444.921875 0)"/>
     <use xlink:href="#DejaVuSansMono-Bold-6c" transform="translate(1505.126953 0)"/>
     <use xlink:href="#DejaVuSansMono-Bold-6f" transform="translate(1565.332031 0)"/>
     <use xlink:href="#DejaVuSansMono-Bold-77" transform="translate(1625.537109 0)"/>
     <use xlink:href="#DejaVuSansMono-Bold-5f" transform="translate(1685.742188 0)"/>
     <use xlink:href="#DejaVuSansMono-Bold-63" transform="translate(1745.947266 0)"/>
     <use xlink:href="#DejaVuSansMono-Bold-20" transform="translate(1806.152344 0)"/>
     <use xlink:href="#DejaVuSansMono-Bold-3d" transform="translate(1866.357422 0)"/>
     <use xlink:href="#DejaVuSansMono-Bold-20" transform="translate(1926.5625 0)"/>
     <use xlink:href="#DejaVuSansMono-Bold-30" transform="translate(1986.767578 0)"/>
    </g>
   </g>
   <g id="text_10">
    <!-- Flow variables sum to zero at connection points -->
    <g style="fill: #2c3e50" transform="translate(150.310625 537.743125) scale(0.14 -0.14)">
     <defs>
      <path id="DejaVuSans-Bold-46" d="M 588 4666 
L 3834 4666 
L 3834 3756 
L 1791 3756 
L 1791 2888 
L 3713 2888 
L 3713 1978 
L 1791 1978 
L 1791 0 
L 588 0 
L 588 4666 
z
" transform="scale(0.015625)"/>
      <path id="DejaVuSans-Bold-6c" d="M 538 4863 
L 1656 4863 
L 1656 0 
L 538 0 
L 538 4863 
z
" transform="scale(0.015625)"/>
      <path id="DejaVuSans-Bold-77" d="M 225 3500 
L 1313 3500 
L 1900 1088 
L 2491 3500 
L 3425 3500 
L 4013 1113 
L 4603 3500 
L 5691 3500 
L 4769 0 
L 3547 0 
L 2956 2406 
L 2369 0 
L 1147 0 
L 225 3500 
z
" transform="scale(0.015625)"/>
      <path id="DejaVuSans-Bold-76" d="M 97 3500 
L 1216 3500 
L 2088 1081 
L 2956 3500 
L 4078 3500 
L 2700 0 
L 1472 0 
L 97 3500 
z
" transform="scale(0.015625)"/>
      <path id="DejaVuSans-Bold-62" d="M 2400 722 
Q 2759 722 2948 984 
Q 3138 1247 3138 1747 
Q 3138 2247 2948 2509 
Q 2759 2772 2400 2772 
Q 2041 2772 1848 2508 
Q 1656 2244 1656 1747 
Q 1656 1250 1848 986 
Q 2041 722 2400 722 
z
M 1656 2988 
Q 1888 3294 2169 3439 
Q 2450 3584 2816 3584 
Q 3463 3584 3878 3070 
Q 4294 2556 4294 1747 
Q 4294 938 3878 423 
Q 3463 -91 2816 -91 
Q 2450 -91 2169 54 
Q 1888 200 1656 506 
L 1656 0 
L 538 0 
L 538 4863 
L 1656 4863 
L 1656 2988 
z
" transform="scale(0.015625)"/>
      <path id="DejaVuSans-Bold-73" d="M 3272 3391 
L 3272 2541 
Q 2913 2691 2578 2766 
Q 2244 2841 1947 2841 
Q 1628 2841 1473 2761 
Q 1319 2681 1319 2516 
Q 1319 2381 1436 2309 
Q 1553 2238 1856 2203 
L 2053 2175 
Q 2913 2066 3209 1816 
Q 3506 1566 3506 1031 
Q 3506 472 3093 190 
Q 2681 -91 1863 -91 
Q 1516 -91 1145 -36 
Q 775 19 384 128 
L 384 978 
Q 719 816 1070 734 
Q 1422 653 1784 653 
Q 2113 653 2278 743 
Q 2444 834 2444 1013 
Q 2444 1163 2330 1236 
Q 2216 1309 1875 1350 
L 1678 1375 
Q 931 1469 631 1722 
Q 331 1975 331 2491 
Q 331 3047 712 3315 
Q 1094 3584 1881 3584 
Q 2191 3584 2531 3537 
Q 2872 3491 3272 3391 
z
" transform="scale(0.015625)"/>
      <path id="DejaVuSans-Bold-7a" d="M 366 3500 
L 3419 3500 
L 3419 2719 
L 1575 800 
L 3419 800 
L 3419 0 
L 288 0 
L 288 781 
L 2131 2700 
L 366 2700 
L 366 3500 
z
" transform="scale(0.015625)"/>
     </defs>
     <use xlink:href="#DejaVuSans-Bold-46"/>
     <use xlink:href="#DejaVuSans-Bold-6c" transform="translate(68.310547 0)"/>
     <use xlink:href="#DejaVuSans-Bold-6f" transform="translate(102.587891 0)"/>
     <use xlink:href="#DejaVuSans-Bold-77" transform="translate(171.289062 0)"/>
     <use xlink:href="#DejaVuSans-Bold-20" transform="translate(263.671875 0)"/>
     <use xlink:href="#DejaVuSans-Bold-76" transform="translate(298.486328 0)"/>
     <use xlink:href="#DejaVuSans-Bold-61" transform="translate(363.671875 0)"/>
     <use xlink:href="#DejaVuSans-Bold-72" transform="translate(431.152344 0)"/>
     <use xlink:href="#DejaVuSans-Bold-69" transform="translate(480.46875 0)"/>
     <use xlink:href="#DejaVuSans-Bold-61" transform="translate(514.746094 0)"/>
     <use xlink:href="#DejaVuSans-Bold-62" transform="translate(582.226562 0)"/>
     <use xlink:href="#DejaVuSans-Bold-6c" transform="translate(653.808594 0)"/>
     <use xlink:href="#DejaVuSans-Bold-65" transform="translate(688.085938 0)"/>
     <use xlink:href="#DejaVuSans-Bold-73" transform="translate(755.908203 0)"/>
     <use xlink:href="#DejaVuSans-Bold-20" transform="translate(815.429688 0)"/>
     <use xlink:href="#DejaVuSans-Bold-73" transform="translate(850.244141 0)"/>
     <use xlink:href="#DejaVuSans-Bold-75" transform="translate(909.765625 0)"/>
     <use xlink:href="#DejaVuSans-Bold-6d" transform="translate(980.957031 0)"/>
     <use xlink:href="#DejaVuSans-Bold-20" transform="translate(1085.15625 0)"/>
     <use xlink:href="#DejaVuSans-Bold-74" transform="translate(1119.970703 0)"/>
     <use xlink:href="#DejaVuSans-Bold-6f" transform="translate(1167.773438 0)"/>
     <use xlink:href="#DejaVuSans-Bold-20" transform="translate(1236.474609 0)"/>
     <use xlink:href="#DejaVuSans-Bold-7a" transform="translate(1271.289062 0)"/>
     <use xlink:href="#DejaVuSans-Bold-65" transform="translate(1329.492188 0)"/>
     <use xlink:href="#DejaVuSans-Bold-72" transform="translate(1397.314453 0)"/>
     <use xlink:href="#DejaVuSans-Bold-6f" transform="translate(1446.630859 0)"/>
     <use xlink:href="#DejaVuSans-Bold-20" transform="translate(1515.332031 0)"/>
     <use xlink:href="#DejaVuSans-Bold-61" transform="translate(1550.146484 0)"/>
     <use xlink:href="#DejaVuSans-Bold-74" transform="translate(1617.626953 0)"/>
     <use xlink:href="#DejaVuSans-Bold-20" transform="translate(1665.429688 0)"/>
     <use xlink:href="#DejaVuSans-Bold-63" transform="translate(1700.244141 0)"/>
     <use xlink:href="#DejaVuSans-Bold-6f" transform="translate(1759.521484 0)"/>
     <use xlink:href="#DejaVuSans-Bold-6e" transform="translate(1828.222656 0)"/>
     <use xlink:href="#DejaVuSans-Bold-6e" transform="translate(1899.414062 0)"/>
     <use xlink:href="#DejaVuSans-Bold-65" transform="translate(1970.605469 0)"/>
     <use xlink:href="#DejaVuSans-Bold-63" transform="translate(2038.427734 0)"/>
     <use xlink:href="#DejaVuSans-Bold-74" transform="translate(2097.705078 0)"/>
     <use xlink:href="#DejaVuSans-Bold-69" transform="translate(2145.507812 0)"/>
     <use xlink:href="#DejaVuSans-Bold-6f" transform="translate(2179.785156 0)"/>
     <use xlink:href="#DejaVuSans-Bold-6e" transform="translate(2248.486328 0)"/>
     <use xlink:href="#DejaVuSans-Bold-20" transform="translate(2319.677734 0)"/>
     <use xlink:href="#DejaVuSans-Bold-70" transform="translate(2354.492188 0)"/>
     <use xlink:href="#DejaVuSans-Bold-6f" transform="translate(2426.074219 0)"/>
     <use xlink:href="#DejaVuSans-Bold-69" transform="translate(2494.775391 0)"/>
     <use xlink:href="#DejaVuSans-Bold-6e" transform="translate(2529.052734 0)"/>
     <use xlink:href="#DejaVuSans-Bold-74" transform="translate(2600.244141 0)"/>
     <use xlink:href="#DejaVuSans-Bold-73" transform="translate(2648.046875 0)"/>
    </g>
   </g>
  </g>
 </g>
 <defs>
  <clipPath id="p83104dd015">
   <rect x="7.2" y="7.2" width="665.28" height="554.4"/>
  </clipPath>
 </defs>
</svg>
